<?xml version="1.0" encoding="UTF-8" ?>
<!DOCTYPE svg PUBLIC "-//W3C//DTD SVG 1.1//EN" "http://www.w3.org/Graphics/SVG/1.1/DTD/svg11.dtd">
<svg width="258pt" height="258pt" viewBox="0 0 258 258" version="1.1" xmlns="http://www.w3.org/2000/svg">
<path fill="#ffffff" stroke="#ffffff" stroke-width="0.09375" opacity="1.00" d=" M 0.00 0.00 L 258.00 0.00 L 258.00 258.00 L 0.00 258.00 L 0.00 0.00 Z" />
<path fill="#237032" stroke="#237032" stroke-width="0.09375" opacity="1.00" d=" M 144.55 24.58 C 147.91 18.92 153.30 13.68 160.18 13.15 C 167.80 12.32 174.72 16.98 179.59 22.42 C 187.84 31.46 191.24 43.61 193.87 55.27 C 194.68 59.04 195.27 62.89 196.73 66.49 C 208.16 64.79 220.72 64.87 230.81 71.23 C 238.56 75.23 242.40 83.54 245.62 91.19 C 252.03 108.42 252.61 127.48 249.28 145.44 C 247.19 157.44 241.77 168.49 236.16 179.18 C 232.91 185.10 229.94 191.31 225.34 196.34 C 221.04 201.02 216.32 205.31 211.46 209.40 C 202.31 217.15 192.86 224.78 181.99 229.99 C 171.81 234.91 160.61 237.21 149.47 238.71 C 138.74 240.42 127.84 240.48 117.00 240.73 C 108.39 240.54 99.59 241.33 91.17 239.05 C 84.13 237.14 77.06 235.26 70.14 232.94 C 56.12 227.98 45.03 217.59 34.89 207.08 C 29.56 201.49 25.30 194.92 22.20 187.85 C 16.65 175.42 11.76 162.53 9.69 149.01 C 7.47 135.07 8.57 120.72 11.95 107.06 C 14.69 95.56 22.94 85.56 33.58 80.49 C 42.28 77.48 51.69 79.38 60.71 78.52 C 62.76 68.03 63.28 57.26 65.88 46.86 C 68.81 36.37 75.56 26.29 85.65 21.58 C 91.67 18.64 99.24 20.38 103.65 25.33 C 111.14 33.25 112.24 44.57 116.06 54.31 C 122.66 54.70 129.27 54.13 135.87 53.92 C 137.02 43.74 139.29 33.48 144.55 24.58 Z" />
<path fill="#7ab12f" stroke="#7ab12f" stroke-width="0.09375" opacity="1.00" d=" M 155.65 19.70 C 160.47 17.21 166.44 18.23 170.75 21.30 C 177.37 25.97 183.02 32.42 185.61 40.19 C 187.48 45.93 189.39 51.75 189.95 57.80 C 190.68 62.75 189.64 68.93 193.31 72.82 C 200.84 74.38 208.68 72.00 216.17 73.96 C 219.51 74.71 220.68 78.26 221.95 81.00 C 223.94 85.87 226.74 90.77 231.38 93.54 C 235.17 95.19 239.36 95.53 243.36 96.40 C 243.74 97.68 244.17 98.95 244.65 100.20 C 242.30 102.38 239.43 104.02 237.40 106.52 C 236.01 109.59 235.98 113.30 237.44 116.35 C 238.79 119.49 242.84 118.94 245.61 119.75 C 248.24 143.41 238.43 166.35 225.63 185.70 C 219.62 195.78 209.56 202.28 201.13 210.12 C 189.00 221.76 172.95 228.84 156.41 231.26 C 138.85 234.85 120.85 235.04 103.01 234.61 C 93.30 234.03 84.13 230.52 74.79 228.14 C 63.53 225.41 53.51 218.74 45.67 210.32 C 42.28 206.69 38.62 203.33 35.00 199.93 C 30.15 195.22 26.52 189.44 23.83 183.26 C 16.66 169.47 13.05 154.10 11.61 138.69 C 11.11 133.08 12.15 127.52 12.72 121.96 C 13.68 114.89 14.88 107.53 18.99 101.52 C 23.14 103.82 28.03 107.65 32.92 104.94 C 39.82 101.61 40.40 93.17 41.75 86.57 C 47.49 85.89 53.27 86.55 59.03 86.18 C 61.26 85.96 64.28 85.56 64.92 82.96 C 66.85 76.76 66.67 70.17 66.95 63.75 C 67.51 54.28 69.85 44.77 74.55 36.48 C 77.19 31.57 81.98 28.26 87.02 26.17 C 91.29 24.55 96.50 24.98 100.09 27.95 C 107.06 33.38 110.15 42.27 111.01 50.80 C 111.69 54.41 111.41 58.88 114.42 61.51 C 118.96 61.85 123.50 61.00 128.04 60.84 C 131.57 60.49 135.44 60.59 138.52 58.58 C 140.91 52.24 141.15 45.32 142.89 38.78 C 144.85 31.37 148.25 23.12 155.65 19.70 Z" />
<path fill="#ffffff" stroke="#ffffff" stroke-width="0.09375" opacity="1.00" d=" M 159.33 25.18 C 163.76 23.01 168.88 25.71 172.03 28.94 C 177.95 35.53 180.77 44.32 181.96 52.96 C 183.27 63.80 183.12 74.82 181.81 85.65 C 179.92 95.39 176.61 106.12 167.67 111.64 C 163.79 114.33 158.47 112.83 155.46 109.54 C 150.46 104.22 147.17 97.36 145.73 90.23 C 143.56 79.66 142.00 68.73 143.98 58.00 C 145.68 46.03 148.51 32.31 159.33 25.18 Z" />
<path fill="#ffffff" stroke="#ffffff" stroke-width="0.09375" opacity="1.00" d=" M 87.38 32.55 C 93.37 30.33 99.34 34.82 101.84 40.07 C 109.16 54.27 110.30 71.05 107.82 86.64 C 106.09 95.66 103.03 105.58 95.23 111.18 C 90.04 114.65 83.70 110.85 80.73 106.27 C 75.49 98.21 73.25 88.49 72.87 78.97 C 72.39 67.09 72.64 54.70 77.75 43.72 C 79.81 39.24 82.65 34.54 87.38 32.55 Z" />
<path fill="#528f30" stroke="#528f30" stroke-width="0.09375" opacity="1.00" d=" M 136.51 57.53 C 140.26 51.92 139.02 44.40 142.89 38.78 C 141.15 45.32 140.91 52.24 138.52 58.58 C 135.44 60.59 131.57 60.49 128.04 60.84 C 123.50 61.00 118.96 61.85 114.42 61.51 C 111.41 58.88 111.69 54.41 111.01 50.80 C 112.12 53.29 113.02 55.86 113.76 58.49 C 118.82 59.32 123.95 58.72 129.04 58.66 C 131.55 58.53 134.16 58.55 136.51 57.53 Z" />
<path fill="#08407b" stroke="#08407b" stroke-width="0.09375" opacity="1.00" d=" M 85.48 62.58 C 86.76 59.39 89.68 56.46 93.42 57.49 C 92.12 60.29 89.76 63.89 92.29 66.74 C 94.42 69.89 98.41 68.27 101.43 67.90 C 102.28 74.14 101.83 80.96 98.45 86.43 C 95.87 90.25 89.71 89.24 87.22 85.80 C 82.28 79.23 82.31 69.90 85.48 62.58 Z" />
<path fill="#08407b" stroke="#08407b" stroke-width="0.09375" opacity="1.00" d=" M 153.48 62.58 C 154.77 59.39 157.68 56.46 161.41 57.49 C 160.12 60.29 157.76 63.89 160.29 66.74 C 162.42 69.90 166.40 68.26 169.43 67.90 C 170.28 74.14 169.83 80.96 166.45 86.43 C 163.86 90.25 157.71 89.24 155.22 85.79 C 150.28 79.23 150.31 69.90 153.48 62.58 Z" />
<path fill="#61932b" stroke="#61932b" stroke-width="0.09375" opacity="1.00" d=" M 189.95 57.80 C 192.31 62.03 191.62 67.59 194.71 71.35 C 199.01 72.55 203.57 70.48 207.99 70.69 C 216.00 70.06 223.16 74.18 229.69 78.28 C 236.39 82.32 239.95 89.67 243.36 96.40 C 239.36 95.53 235.17 95.19 231.38 93.54 C 226.74 90.77 223.94 85.87 221.95 81.00 C 220.68 78.26 219.51 74.71 216.17 73.96 C 208.68 72.00 200.84 74.38 193.31 72.82 C 189.64 68.93 190.68 62.75 189.95 57.80 Z" />
<path fill="#61932b" stroke="#61932b" stroke-width="0.09375" opacity="1.00" d=" M 62.31 83.32 C 67.11 78.01 63.98 69.92 66.95 63.75 C 66.67 70.17 66.85 76.76 64.92 82.96 C 64.28 85.56 61.26 85.96 59.03 86.18 C 53.27 86.55 47.49 85.89 41.75 86.57 C 40.40 93.17 39.82 101.61 32.92 104.94 C 28.03 107.65 23.14 103.82 18.99 101.52 C 21.59 97.09 25.54 93.72 29.18 90.19 C 32.93 86.59 38.18 85.33 43.08 84.13 C 49.42 82.65 56.10 85.40 62.31 83.32 Z" />
<path fill="#1b6b2c" stroke="#1b6b2c" stroke-width="0.09375" opacity="1.00" d=" M 202.52 96.59 C 212.86 95.12 225.23 97.28 230.95 107.00 C 226.09 104.85 222.14 100.99 216.97 99.48 C 214.35 104.40 214.53 110.11 213.26 115.41 C 210.00 131.86 202.20 146.88 194.48 161.61 C 189.51 171.43 180.98 178.69 173.06 186.07 C 163.65 194.76 150.92 198.29 138.61 200.45 C 132.80 201.45 126.89 201.41 121.05 202.12 C 110.97 202.94 100.70 201.31 91.31 197.59 C 85.37 195.24 79.13 193.09 74.33 188.70 C 64.13 179.51 54.77 169.24 47.56 157.51 C 45.17 153.57 42.84 149.60 40.26 145.77 C 37.35 141.27 33.83 137.08 32.01 131.96 C 34.44 133.90 36.46 136.30 38.02 138.98 C 44.91 150.50 52.19 161.85 60.76 172.20 C 66.13 178.85 71.71 185.77 79.62 189.48 C 89.43 194.08 99.54 199.04 110.57 199.56 C 125.19 200.40 140.00 198.66 153.94 194.14 C 170.25 188.85 182.76 175.84 191.78 161.72 C 202.28 144.72 210.33 125.83 212.95 105.91 C 212.95 103.90 214.03 101.13 211.84 99.89 C 208.59 99.45 205.30 99.65 202.04 99.56 C 202.35 98.59 202.51 97.60 202.52 96.59 Z" />
<path fill="#61932b" stroke="#61932b" stroke-width="0.09375" opacity="1.00" d=" M 244.65 100.20 C 246.22 105.71 247.22 111.36 248.00 117.03 C 248.94 123.95 247.72 130.90 246.74 137.74 C 244.40 154.26 237.40 169.73 229.00 184.00 C 224.75 191.18 218.70 196.99 212.83 202.83 C 200.55 214.54 186.19 224.16 170.38 230.42 C 163.87 232.75 156.92 233.25 150.13 234.27 C 135.84 236.17 121.41 237.76 106.97 237.16 C 99.04 236.45 91.32 234.30 83.64 232.35 C 74.71 229.80 65.38 227.74 57.60 222.42 C 50.57 217.94 45.18 211.50 39.17 205.83 C 37.37 204.19 36.00 202.15 35.00 199.93 C 38.62 203.33 42.28 206.69 45.67 210.32 C 53.51 218.74 63.53 225.41 74.79 228.14 C 84.13 230.52 93.30 234.03 103.01 234.61 C 120.85 235.04 138.85 234.85 156.41 231.26 C 172.95 228.84 189.00 221.76 201.13 210.12 C 209.56 202.28 219.62 195.78 225.63 185.70 C 238.43 166.35 248.24 143.41 245.61 119.75 C 242.84 118.94 238.79 119.49 237.44 116.35 C 235.98 113.30 236.01 109.59 237.40 106.52 C 239.43 104.02 242.30 102.38 244.65 100.20 Z" />
<path fill="#62942b" stroke="#62942b" stroke-width="0.09375" opacity="1.00" d=" M 19.13 112.12 C 19.82 112.08 21.20 112.01 21.88 111.97 C 23.94 114.81 23.79 120.49 19.16 120.18 C 17.38 117.69 18.10 114.74 19.13 112.12 Z" />
<path fill="#62942b" stroke="#62942b" stroke-width="0.09375" opacity="1.00" d=" M 32.17 111.98 C 33.38 111.96 34.60 111.97 35.81 112.01 C 36.90 114.58 38.08 118.38 35.24 120.29 C 33.82 121.75 31.95 120.01 31.39 118.59 C 30.50 116.38 31.48 114.08 32.17 111.98 Z" />
<path fill="#5a902e" stroke="#5a902e" stroke-width="0.09375" opacity="1.00" d=" M 110.53 135.42 C 105.50 131.20 109.63 121.96 115.88 121.68 C 117.50 123.89 118.69 126.69 117.51 129.41 C 116.53 132.29 114.13 136.36 110.53 135.42 Z" />
<path fill="#5b912e" stroke="#5b912e" stroke-width="0.09375" opacity="1.00" d=" M 133.27 121.99 C 138.20 120.83 141.83 126.58 141.37 130.97 C 141.54 134.14 137.31 136.83 135.02 134.01 C 131.97 131.20 128.89 124.97 133.27 121.99 Z" />
</svg>
